<?xml version="1.0" standalone="no"?>
<!DOCTYPE svg PUBLIC "-//W3C//DTD SVG 20010904//EN"
 "http://www.w3.org/TR/2001/REC-SVG-20010904/DTD/svg10.dtd">
<svg version="1.0" xmlns="http://www.w3.org/2000/svg"
 width="296.876393842" height="336.840523782" viewBox="0 0 468 531"
 preserveAspectRatio="xMidYMid meet">
<metadata>
Created by potrace 1.8, written by Peter Selinger 2001-2007
</metadata>
<g transform="translate(0,531) scale(0.095706,-0.095706)"
fill="#fff" stroke="none">
<path d="M80 3135 l0 -2345 2340 0 2340 0 0 2345 0 2345 -2340 0 -2340 0 0
-2345z m3990 1995 l0 -240 -1660 0 -1660 0 0 240 0 240 1660 0 1660 0 0 -240z
m580 0 l0 -240 -240 0 -240 0 0 240 0 240 240 0 240 0 0 -240z m-3990 -5 l0
-235 -230 0 -230 0 0 235 0 235 230 0 230 0 0 -235z m0 -1995 l0 -1690 -230 0
-230 0 0 1690 0 1690 230 0 230 0 0 -1690z m3410 1224 c0 -438 -1 -465 -17
-462 -13 3 -18 13 -18 40 0 37 -27 78 -52 78 -7 0 -13 -2 -13 -4 0 -2 -3 -12
-7 -22 -5 -14 -2 -16 15 -12 26 7 27 0 7 -29 -19 -28 -59 -39 -52 -14 3 12 -6
24 -25 37 -25 17 -28 23 -23 55 7 38 -3 52 -42 61 -22 6 -63 -15 -63 -33 0 -5
9 -9 19 -9 28 0 33 -25 10 -53 -10 -14 -19 -28 -19 -32 0 -3 -7 -13 -15 -21
-22 -23 -18 -37 10 -32 13 3 22 2 20 -3 -3 -4 -1 -10 4 -13 5 -4 9 -32 8 -63
-1 -36 3 -58 11 -61 20 -6 14 -50 -10 -72 -36 -34 -98 -20 -98 23 0 42 -13 49
-94 50 -75 1 -90 9 -65 34 6 6 8 16 5 22 -9 14 -36 14 -36 1 0 -14 -26 -12
-38 3 -8 9 -7 20 3 40 13 25 13 27 -9 27 -12 0 -31 6 -41 14 -18 13 -18 14 6
27 13 7 30 12 37 10 11 -2 12 6 7 31 -9 40 -13 48 -27 48 -5 0 -8 -7 -4 -15 8
-21 -33 -48 -51 -33 -22 18 -15 39 17 51 42 16 32 31 -23 35 -35 2 -47 7 -47
19 0 13 8 15 41 10 28 -4 42 -1 45 8 3 7 15 15 26 18 15 4 19 12 16 25 -7 25
1 37 30 46 17 6 22 3 22 -10 0 -10 -6 -25 -14 -33 -7 -9 -17 -27 -21 -40 -6
-21 -5 -23 11 -16 37 14 49 11 49 -15 0 -17 -6 -26 -20 -28 -31 -6 -41 -20
-23 -34 9 -7 18 -23 20 -36 4 -28 23 -30 24 -2 1 12 11 32 24 45 12 13 19 28
15 34 -3 6 -2 11 3 11 5 0 14 12 21 26 10 22 9 30 -4 44 -14 16 -14 19 0 33
18 19 29 67 18 84 -11 15 -49 21 -46 7 1 -6 -8 -11 -20 -10 -16 1 -29 14 -45
48 -27 54 -69 72 -101 44 -10 -9 -21 -16 -25 -16 -8 0 -4 32 8 61 4 8 -1 24
-11 36 -10 11 -33 42 -51 67 -38 56 -56 64 -91 44 -14 -9 -45 -18 -68 -21
l-41 -5 1 45 c2 36 -2 48 -20 60 -20 13 -23 13 -33 -8 -9 -17 -9 -23 0 -29 14
-9 7 -40 -8 -40 -5 0 -15 7 -22 15 -7 8 -9 15 -6 15 4 0 4 5 1 11 -5 7 -12 5
-24 -5 -9 -8 -28 -19 -43 -25 -30 -11 -44 -1 -46 38 -1 25 -28 61 -47 61 -6 0
-21 -11 -33 -25 l-22 -25 35 0 c38 0 50 -25 18 -37 -32 -12 -56 -41 -49 -59 5
-13 9 -14 22 -3 13 10 17 10 25 -2 11 -18 -15 -39 -40 -32 -34 9 -51 83 -28
120 11 18 -50 28 -70 11 -13 -10 -17 -10 -20 0 -3 6 -11 12 -20 12 -31 0 -46
29 -40 75 7 45 -7 70 -23 44 -7 -10 -13 -11 -32 -1 -13 6 -48 16 -78 21 -78
14 -205 39 -207 40 -24 15 -78 27 -113 24 -25 -1 -70 -4 -100 -7 -30 -2 -56
-8 -58 -15 -2 -6 -7 -9 -12 -6 -4 3 -13 -9 -20 -25 -14 -34 -14 -34 -40 -20
-13 7 -21 7 -25 0 -3 -5 -16 -10 -27 -10 -12 0 -36 -11 -54 -25 -18 -14 -45
-25 -61 -25 -33 -1 -63 -24 -80 -63 -7 -15 -25 -32 -40 -37 -16 -6 -40 -17
-55 -25 -42 -24 -56 -19 -63 24 -6 34 -12 42 -41 51 -19 7 -44 25 -56 41 -18
24 -24 26 -37 16 -12 -10 -14 -9 -8 5 3 10 2 20 -3 23 -13 8 -102 -35 -125
-62 -11 -13 -26 -23 -32 -23 -6 0 -16 -7 -23 -16 -10 -11 -23 -14 -51 -9 -46
8 -74 -6 -99 -48 -26 -42 -25 -80 2 -128 l21 -38 -29 -23 c-15 -13 -37 -33
-48 -45 -17 -20 -26 -22 -73 -16 -49 5 -57 3 -81 -20 -24 -22 -53 -32 -88 -28
-6 1 -25 14 -42 29 l-32 29 0 256 0 257 1660 0 1660 0 0 -466z m580 -1224 l0
-1690 -240 0 -240 0 0 1690 0 1690 240 0 240 0 0 -1690z m-2403 1638 c7 -5 25
-8 40 -6 26 3 28 1 26 -32 -2 -46 -1 -44 -17 -31 -20 17 -94 -52 -77 -72 12
-16 3 -28 -34 -41 -20 -7 -20 -7 0 -22 28 -21 49 -13 53 19 2 18 14 34 33 46
16 10 26 21 22 24 -3 4 1 7 10 7 9 0 17 -5 17 -10 0 -6 18 -30 41 -55 35 -38
39 -46 29 -65 -6 -12 -9 -29 -5 -38 5 -13 9 -10 22 16 10 21 23 32 37 32 12 0
27 5 32 10 14 14 37 -12 32 -36 -3 -17 -17 -28 -52 -39 -18 -5 -17 -8 9 -35
16 -17 38 -30 49 -30 18 -1 17 -3 -6 -16 -16 -8 -28 -17 -28 -20 0 -3 14 -17
31 -32 l32 -26 -29 -22 -28 -23 24 -19 c21 -17 22 -23 14 -68 -9 -55 -7 -93 7
-110 6 -8 3 -13 -12 -17 -19 -5 -20 -8 -9 -21 10 -13 10 -16 -4 -16 -10 0 -16
8 -16 21 0 25 -18 61 -36 72 -21 12 -17 24 11 31 28 7 31 20 13 59 -15 30 -50
37 -47 10 3 -34 -1 -41 -21 -36 -11 3 -20 12 -20 21 0 8 -12 30 -26 49 -31 41
-25 71 18 80 19 4 33 14 39 31 14 36 -6 54 -27 24 -22 -32 -60 -26 -56 8 2 14
9 31 15 38 13 16 -8 33 -30 25 -7 -3 -24 -2 -38 1 -21 5 -25 12 -25 42 0 32
-2 35 -15 24 -9 -7 -14 -15 -11 -17 2 -2 0 -19 -4 -38 -7 -31 -6 -34 20 -40
18 -4 34 -18 46 -41 l19 -34 -30 -25 c-35 -28 -44 -30 -70 -11 -18 13 -18 18
-7 48 19 55 15 68 -27 86 -31 14 -39 22 -38 42 2 22 -1 24 -34 22 -40 -4 -55
9 -63 53 -9 49 1 65 40 65 32 0 35 -2 32 -27 -4 -33 15 -41 29 -11 10 23 -1
91 -18 113 -14 18 5 33 46 37 36 3 38 4 22 20 -9 9 -17 19 -17 21 0 7 54 -5
67 -15z m-412 -148 c-3 -5 0 -7 8 -4 10 3 17 -4 22 -23 12 -48 21 -53 66 -31
46 22 67 21 83 -4 15 -24 -6 -47 -28 -29 -20 17 -28 -1 -16 -34 9 -25 13 -26
55 -19 38 5 48 3 60 -12 8 -11 12 -27 9 -36 -3 -11 0 -18 8 -19 31 -2 52 -9
63 -21 15 -15 30 -118 17 -118 -4 0 -13 -10 -18 -22 -6 -13 -9 -17 -7 -10 1 6
-6 12 -17 12 -17 0 -20 7 -20 46 0 32 -4 44 -12 41 -7 -2 -21 0 -30 5 -10 5
-18 5 -18 0 0 -13 38 -83 56 -103 25 -28 7 -42 -34 -28 -30 10 -32 14 -26 44
8 42 -2 72 -25 80 -12 4 -20 19 -24 46 -3 22 -11 46 -17 54 -14 17 -48 19 -70
5 -19 -12 -8 -22 30 -26 49 -6 53 -14 25 -42 -15 -15 -34 -40 -42 -56 l-15
-29 29 7 c63 15 68 14 68 -24 0 -30 -5 -37 -33 -49 -37 -17 -41 -46 -7 -65 11
-6 25 -18 31 -26 10 -13 14 -11 25 13 22 49 67 29 72 -34 2 -32 14 -44 62 -63
6 -2 2 -12 -9 -22 -13 -14 -20 -15 -23 -6 -7 19 -33 14 -33 -7 0 -28 -16 -35
-85 -39 -135 -7 -186 -2 -208 18 -26 25 -30 25 -52 0 -10 -11 -23 -20 -28 -20
-18 0 -47 32 -47 51 0 17 8 19 88 16 88 -3 89 -3 105 25 21 37 42 35 83 -6 20
-20 42 -33 56 -32 34 2 28 28 -9 40 -18 6 -38 19 -45 29 -8 10 -29 19 -48 20
-19 2 -45 8 -57 15 -12 7 -27 12 -34 12 -7 0 -20 7 -30 16 -16 14 -17 13 -16
-19 1 -39 -17 -67 -43 -67 -13 0 -19 11 -24 42 -4 27 -3 44 4 46 18 6 11 21
-17 34 -21 10 -29 22 -31 46 -2 23 -8 32 -21 32 -22 0 -55 35 -46 49 10 17 29
13 43 -9 7 -11 21 -20 31 -20 11 0 23 -5 26 -10 4 -6 27 -20 52 -32 38 -18 50
-20 76 -10 39 15 67 0 67 -34 0 -34 24 -26 28 9 2 19 -4 31 -26 47 -25 18 -31
32 -37 78 -6 51 -5 57 17 74 l23 18 -41 0 c-37 0 -42 3 -47 28 -4 19 2 36 18
58 25 33 24 44 -6 44 -9 0 -19 6 -22 13 -7 20 11 57 28 57 9 0 13 -4 10 -10z
m-503 -82 c-20 -20 -14 -47 13 -54 28 -7 32 -25 10 -44 -13 -11 -13 -15 -3
-22 10 -6 10 -10 -1 -17 -12 -8 -12 -13 0 -33 16 -25 14 -68 -2 -68 -6 0 -24
7 -40 16 -29 15 -31 14 -54 -10 -28 -31 -29 -31 -49 -10 -17 17 -22 39 -7 29
6 -3 15 4 21 15 7 13 20 20 33 19 12 -1 35 3 50 9 23 10 28 17 25 40 -4 33
-32 37 -36 5 -5 -33 -28 -28 -38 9 -5 17 -15 33 -23 36 -8 3 -11 0 -8 -5 8
-13 -42 -8 -55 5 -10 10 -1 79 12 87 11 7 40 -35 40 -57 0 -24 23 -23 45 2 10
11 25 20 33 20 11 0 13 8 9 29 -7 35 2 46 22 26 12 -12 13 -17 3 -27z m205 24
c9 -6 10 -17 5 -38 -12 -42 -1 -79 22 -79 13 0 22 -10 27 -27 6 -25 4 -29 -27
-40 -32 -11 -33 -13 -19 -35 14 -21 14 -24 -1 -30 -9 -3 -20 0 -24 7 -6 9 -10
8 -17 -5 -9 -15 -13 -15 -31 -4 -19 12 -22 23 -22 72 0 48 -5 65 -25 89 -14
16 -25 35 -25 42 0 7 11 18 25 24 14 6 25 16 25 22 0 12 69 13 87 2z m172 -56
c8 -9 8 -21 2 -39 -8 -20 -7 -30 6 -42 10 -11 19 -13 26 -6 5 5 17 7 26 3 14
-5 14 -3 2 11 -8 10 -10 24 -6 34 6 15 10 11 19 -17 7 -19 22 -39 33 -44 15
-7 20 -19 21 -53 0 -38 -3 -45 -25 -54 -36 -13 -59 -3 -73 31 -17 40 -37 57
-52 42 -16 -16 -45 -15 -51 2 -3 7 1 26 9 41 17 32 17 38 4 30 -16 -10 -12 28
6 53 17 25 36 28 53 8z m1057 -3 c17 -22 18 -65 2 -81 -17 -17 6 -62 33 -62
25 0 58 -37 59 -67 0 -34 -13 -35 -52 -3 -32 27 -37 28 -61 15 -37 -19 -97
-28 -97 -14 0 6 9 18 21 28 27 22 49 86 42 122 -3 18 1 36 13 53 23 31 23 31
40 9z m-165 -95 c1 -7 0 -23 0 -34 -1 -12 5 -24 14 -28 12 -4 14 -14 10 -40
-4 -19 -4 -48 0 -65 5 -26 11 -31 34 -31 15 0 36 9 46 20 18 20 45 27 45 11 0
-5 -7 -14 -15 -21 -22 -18 -18 -32 7 -28 15 2 24 -3 26 -14 2 -10 -2 -18 -9
-18 -22 0 -49 -32 -49 -59 0 -30 -29 -115 -30 -89 0 10 -6 17 -12 15 -16 -3
-18 82 -2 97 6 6 9 16 7 22 -2 7 -16 -1 -32 -17 -27 -26 -31 -27 -67 -17 -22
5 -41 12 -43 14 -6 6 41 39 54 39 10 0 10 7 0 103 -6 61 -12 75 -27 66 -8 -5
-9 5 -5 31 6 35 20 54 40 55 4 0 7 -6 8 -12z m402 -63 c9 -4 17 -11 17 -15 0
-11 -30 -21 -40 -15 -5 3 -7 -4 -5 -15 2 -11 -1 -20 -7 -20 -7 0 -8 -12 -3
-32 4 -18 8 -44 10 -57 4 -24 -15 -51 -35 -51 -6 0 -8 -5 -4 -12 4 -7 3 -8 -4
-4 -17 10 -15 26 3 26 8 0 15 6 15 13 0 22 -11 27 -27 12 -10 -11 -20 -12 -32
-5 -16 8 -18 19 -13 81 4 54 1 73 -9 81 -11 8 -11 9 3 5 9 -3 22 1 29 9 13 16
63 15 102 -1z m-1829 -22 c3 -10 5 -20 4 -23 -1 -3 6 -15 16 -27 15 -17 26
-20 55 -16 20 3 41 9 46 13 19 14 64 20 70 10 3 -5 19 -10 34 -10 16 0 34 -7
42 -16 16 -19 66 -12 84 13 14 19 42 12 51 -12 4 -9 -1 -24 -11 -35 -17 -19
-17 -20 1 -26 68 -21 76 -32 49 -68 -21 -27 -19 -33 16 -66 23 -20 32 -38 34
-64 2 -45 -11 -56 -26 -22 -9 18 -23 28 -48 32 -42 8 -63 30 -56 61 4 15 -2
27 -17 37 -20 14 -24 14 -44 -5 -26 -24 -44 -18 -44 15 0 13 -14 37 -30 55
-29 29 -33 31 -84 25 -46 -6 -55 -4 -68 14 -13 20 -41 17 -37 -4 3 -19 -1 -34
-11 -34 -16 0 -41 46 -45 82 -3 18 -7 45 -11 61 -5 20 -3 27 9 27 9 0 18 -8
21 -17z m-104 -113 c0 -11 -4 -20 -10 -20 -16 0 -11 -17 7 -24 16 -7 36 11 27
25 -2 4 5 9 16 12 22 6 23 2 20 -55 -2 -43 -2 -43 36 -23 27 14 54 6 54 -16 0
-15 -62 -79 -76 -79 -9 0 -14 -11 -14 -27 0 -25 -24 -63 -40 -63 -18 0 -18 45
1 68 10 14 19 28 19 32 0 4 -21 11 -46 15 -45 6 -46 8 -40 36 3 16 2 29 -3 29
-5 0 -12 12 -15 26 -5 20 -2 30 14 41 11 8 20 21 20 29 0 8 7 14 15 14 8 0 15
-9 15 -20z m1279 -67 c-16 -31 -4 -43 51 -50 23 -3 43 -11 45 -17 2 -6 6 -24
9 -41 5 -22 4 -26 -4 -15 -5 8 -10 10 -10 4 0 -18 -52 -23 -76 -8 -16 11 -28
12 -47 5 -20 -8 -31 -6 -52 11 -17 13 -34 18 -49 14 -16 -4 -29 1 -41 14 -16
18 -16 20 9 43 14 13 26 28 26 33 0 15 38 34 55 28 21 -8 31 -53 16 -75 -14
-24 -14 -29 2 -29 32 0 50 76 26 107 -7 8 -1 20 18 37 l28 26 3 -32 c2 -17 -2
-42 -9 -55z m877 61 c4 -17 1 -37 -10 -54 -20 -36 -21 -60 0 -60 10 0 14 6 11
14 -7 17 28 52 37 38 6 -10 -6 -84 -18 -113 -5 -12 0 -18 23 -22 50 -10 50
-77 0 -77 -23 0 -25 -25 -3 -34 23 -9 54 -7 54 3 0 5 14 11 32 15 37 7 52 -8
35 -35 -15 -24 -1 -36 20 -17 32 26 48 11 62 -53 11 -55 10 -63 -5 -80 -9 -10
-23 -19 -30 -19 -15 0 -35 33 -32 52 2 7 -4 13 -12 12 -10 -1 -15 9 -16 29 -2
37 -37 66 -81 67 -30 0 -50 -20 -20 -20 6 -1 29 -9 49 -18 37 -18 37 -18 22
-46 -8 -16 -12 -31 -9 -34 2 -3 -5 -18 -16 -33 -18 -26 -24 -28 -62 -23 -23 3
-48 6 -54 6 -7 1 -13 7 -13 15 0 7 6 13 13 14 6 0 -3 5 -22 11 -31 8 -37 7
-53 -14 -9 -13 -18 -26 -18 -29 0 -12 55 -17 62 -6 6 9 8 9 8 0 0 -6 -4 -15
-10 -18 -12 -7 -14 -55 -2 -55 4 0 12 10 17 23 13 30 55 36 55 8 0 -24 15 -28
24 -6 3 8 13 15 22 15 9 0 27 9 41 20 19 15 30 17 44 9 20 -10 26 -44 9 -54
-6 -4 -8 -11 -5 -16 4 -5 15 -3 28 6 27 19 37 19 37 0 0 -19 14 -19 30 0 7 8
10 25 6 40 -5 18 -2 25 9 25 9 0 15 -9 15 -21 0 -15 5 -19 15 -15 23 8 45 -4
45 -25 0 -11 -7 -22 -15 -25 -20 -8 -19 -24 2 -24 16 0 64 -14 111 -31 19 -8
21 -12 12 -30 -11 -19 -10 -20 17 -6 39 19 57 16 61 -10 2 -14 -5 -27 -22 -38
-27 -18 -26 -35 2 -35 9 0 25 -11 34 -25 17 -22 17 -25 0 -41 -9 -10 -17 -21
-17 -25 0 -19 -15 -19 -27 0 -15 24 -48 28 -48 6 0 -8 -4 -15 -9 -15 -5 0 -13
-9 -16 -21 -6 -17 -12 -19 -37 -14 -24 6 -29 4 -26 -11 4 -24 -22 -30 -29 -6
-2 11 -16 25 -29 32 -29 16 -30 20 -3 49 17 18 19 27 10 51 -5 17 -7 30 -3 30
4 0 -7 9 -25 19 -29 18 -31 23 -26 60 4 25 1 46 -7 56 -15 18 -60 16 -60 -3 0
-8 6 -12 15 -8 23 8 51 -39 35 -59 -7 -8 -21 -15 -31 -15 -10 0 -20 -4 -23 -9
-6 -9 46 -53 77 -64 25 -9 21 -46 -7 -58 -24 -11 -72 6 -104 37 -17 17 -32 18
-32 1 0 -19 -35 -36 -60 -30 -15 4 -20 11 -17 25 3 11 0 21 -8 24 -7 3 -16 15
-19 27 -6 20 -8 18 -25 -17 -20 -41 -19 -63 2 -63 17 0 127 -72 127 -83 0 -5
-8 -16 -17 -26 -18 -17 -20 -22 -22 -56 -1 -13 -10 -18 -31 -18 -17 0 -30 -5
-30 -12 0 -7 -7 -3 -14 8 -13 18 -13 28 -1 75 9 33 11 57 5 63 -6 6 -11 4 -13
-5 -19 -65 -24 -74 -45 -77 -33 -5 -55 16 -47 46 4 17 2 23 -7 20 -23 -8 -21
-55 4 -78 13 -11 30 -27 39 -35 9 -8 23 -15 32 -15 8 0 19 -9 22 -20 3 -11 13
-20 21 -20 17 0 18 -12 2 -28 -12 -12 -4 -17 37 -24 25 -4 33 -46 11 -54 -18
-7 -22 -34 -4 -34 6 0 19 -6 27 -14 9 -7 38 -19 66 -25 58 -14 75 -26 75 -52
0 -23 -37 -26 -65 -5 -25 18 -40 11 -65 -31 -12 -21 -26 -33 -34 -30 -7 3 -19
0 -25 -6 -12 -12 -16 13 -12 62 2 19 -1 22 -15 17 -10 -4 -21 -1 -26 6 -6 10
-11 9 -19 -4 -16 -28 -48 -22 -55 10 -10 38 -22 43 -60 20 -19 -11 -34 -15
-34 -9 0 6 -5 10 -12 8 -8 -1 -12 16 -12 53 l-1 55 33 -1 c29 -2 32 0 30 26
-1 15 4 35 10 43 7 8 9 17 5 20 -12 7 -125 21 -146 18 -18 -2 -28 14 -32 52
-4 35 -5 37 -13 37 -4 0 -6 -16 -4 -35 3 -22 -2 -45 -13 -61 -14 -22 -15 -28
-4 -35 8 -5 20 -2 30 7 27 24 89 15 89 -13 0 -9 6 -13 15 -9 25 9 17 -12 -14
-40 -35 -31 -53 -111 -29 -128 8 -6 17 -19 21 -28 9 -25 35 -22 57 4 16 20 19
20 33 7 13 -14 13 -17 -2 -26 -9 -6 -31 -14 -49 -18 -36 -7 -41 -21 -14 -41
14 -11 15 -16 4 -33 -7 -13 -8 -21 -2 -21 5 0 10 -9 10 -20 0 -11 5 -20 10
-20 6 0 10 -8 10 -17 0 -14 -3 -13 -21 5 -11 12 -17 27 -13 33 4 7 -4 10 -22
7 -25 -3 -29 0 -27 20 3 24 -16 29 -35 10 -8 -8 -12 -8 -12 -1 0 6 -10 13 -21
16 -17 5 -20 11 -15 31 6 26 -8 46 -18 24 -2 -7 -4 -2 -3 12 1 15 14 34 33 47
25 17 30 27 27 47 -5 25 -23 27 -23 3 0 -24 -19 -40 -47 -42 -24 -1 -29 3 -31
23 -1 14 -4 27 -5 29 -2 1 -25 -4 -51 -13 -53 -18 -68 -10 -58 29 4 17 2 19
-19 13 -45 -15 -71 -12 -83 9 -6 11 -12 22 -13 24 -2 2 -10 -2 -19 -10 -10 -8
-19 -13 -21 -11 -2 2 -19 -2 -39 -7 -54 -15 -81 1 -76 45 3 26 1 34 -12 34 -9
0 -16 8 -16 18 0 10 -8 34 -18 54 -10 19 -17 44 -15 54 6 41 -8 72 -38 83 -27
9 -30 14 -27 48 3 32 7 38 28 40 14 1 38 5 54 9 49 12 64 -44 23 -87 l-22 -25
26 -22 c15 -12 32 -22 38 -22 22 0 30 -36 15 -65 -17 -34 -12 -42 19 -28 12 6
31 14 42 18 18 6 18 8 4 18 -9 7 -19 22 -23 34 -6 17 -2 22 16 25 15 2 29 16
39 38 20 41 15 54 -17 47 -35 -6 -57 23 -44 57 13 36 8 42 -38 50 -71 11 -75
75 -7 95 l30 9 -32 7 c-30 7 -33 11 -33 46 0 52 15 86 41 94 18 6 29 1 50 -24
32 -39 46 -27 29 25 -15 44 -3 62 30 44 13 -7 19 -17 16 -26 -4 -11 2 -9 20 5
31 24 52 26 77 7 23 -18 22 -35 -8 -79 -22 -31 -31 -37 -58 -35 -18 1 -40 8
-49 16 -12 10 -18 11 -18 4 0 -7 4 -12 9 -12 4 0 6 -11 3 -25 -2 -14 -7 -25
-11 -25 -3 0 -12 -14 -20 -31 -15 -35 -2 -79 24 -79 20 0 19 19 -1 42 -22 24
-2 50 35 45 21 -3 26 -10 27 -33 2 -47 3 -48 24 -29 30 27 57 29 65 5 9 -30
-4 -60 -26 -60 -10 0 -19 -4 -19 -10 0 -5 5 -10 10 -10 14 0 13 -63 -2 -78
-14 -14 -9 -20 23 -25 13 -2 23 -7 22 -10 -2 -4 -3 -15 -3 -25 0 -14 -6 -18
-27 -15 -16 2 -42 -5 -60 -16 -28 -18 -33 -26 -33 -58 l1 -38 14 40 c8 22 15
41 15 41 0 1 12 5 26 8 18 5 32 2 44 -9 15 -14 21 -14 53 0 20 8 38 11 42 6 8
-15 77 8 106 35 38 37 55 31 65 -21 6 -35 39 -68 53 -52 7 9 2 18 -18 32 -28
18 -28 19 -10 38 10 11 17 23 15 26 -2 3 9 7 26 8 18 1 40 14 56 30 14 15 30
27 35 25 6 -2 22 0 38 3 19 4 26 11 22 21 -3 8 -10 14 -17 14 -20 0 -38 38
-26 60 15 28 12 47 -4 25 -13 -18 -14 -18 -31 -1 -10 9 -24 15 -32 12 -8 -3
-11 -2 -8 3 3 5 1 12 -5 16 -16 10 -12 43 7 54 12 6 26 5 46 -6 33 -17 46 -10
30 15 -7 12 -24 17 -58 17 -43 0 -48 3 -66 35 -12 22 -18 28 -17 15 4 -29 -10
-45 -38 -45 -36 0 -29 -15 14 -28 30 -9 40 -18 47 -44 6 -18 19 -37 31 -43 11
-6 19 -15 17 -21 -2 -6 3 -17 12 -24 8 -7 15 -19 15 -26 0 -18 -21 -55 -40
-70 -28 -23 -83 22 -62 50 5 6 12 24 16 40 l7 29 -51 -5 c-39 -4 -56 -1 -73
12 l-21 18 26 51 c25 47 26 51 8 51 -10 0 -25 7 -33 15 -8 8 -18 11 -21 7 -4
-3 -4 1 -1 10 4 11 -1 20 -14 28 -12 6 -21 19 -21 30 0 16 -5 19 -29 14 -28
-6 -28 -5 -22 32 5 31 12 41 34 48 22 8 30 7 37 -4 5 -8 7 -17 4 -21 -6 -10
17 -59 27 -59 4 0 11 5 14 11 4 6 13 8 21 5 21 -8 17 22 -5 34 -14 7 -21 6
-25 -3 -4 -6 -4 9 -1 34 2 26 2 49 -2 52 -3 4 -18 0 -34 -8 -44 -23 -67 -6
-59 45 1 8 9 21 19 27 63 48 67 53 51 65 -11 9 -14 23 -10 43 4 24 11 31 33
33 26 3 27 1 29 -45 1 -26 2 -64 1 -83 0 -21 6 -40 17 -50 9 -8 20 -26 23 -40
3 -14 12 -33 20 -43 12 -17 16 -18 48 -4 22 9 43 11 56 6 26 -9 39 4 20 19 -7
6 -14 38 -15 71 -3 57 -2 62 22 72 44 20 74 -21 40 -55 -8 -9 -13 -20 -9 -25
6 -11 36 -3 47 13 12 17 9 61 -4 74 -8 8 -8 15 3 28 11 14 11 18 -4 29 -23 16
-22 32 3 45 11 6 20 18 20 26 0 8 -3 13 -8 10 -15 -9 -39 20 -45 58 -5 34 -2
44 24 78 36 45 56 48 65 12z m-191 -80 c0 -37 1 -39 33 -39 34 0 54 -18 45
-41 -6 -15 -68 -38 -82 -30 -5 3 -12 -9 -15 -27 -3 -19 -13 -42 -20 -53 -14
-18 -16 -18 -45 15 l-30 33 34 34 c34 34 32 54 -4 34 -19 -10 -71 -14 -71 -5
0 2 5 16 12 30 11 23 21 30 42 26 5 -1 13 4 17 11 6 9 9 6 9 -9 0 -14 6 -23
15 -23 8 0 15 9 15 19 0 33 19 73 33 68 7 -2 12 -21 12 -43z m-2065 -12 c0 -7
-13 -21 -30 -30 -35 -20 -36 -28 -12 -60 14 -18 25 -23 49 -19 35 6 57 -5 51
-24 -13 -37 47 -79 87 -61 60 28 76 31 100 22 22 -8 24 -12 14 -37 -5 -15 -15
-33 -21 -40 -14 -17 -8 -23 32 -28 18 -2 41 -12 51 -21 25 -23 35 -12 15 18
-13 20 -13 25 0 42 19 27 18 33 -8 42 -28 9 -97 83 -98 105 0 36 45 30 51 -6
3 -11 13 -21 25 -23 13 -2 23 -14 30 -35 8 -28 13 -32 42 -29 36 2 40 -8 17
-48 -17 -29 -18 -40 -7 -40 5 0 14 11 20 25 14 31 28 32 53 3 25 -31 24 -50
-5 -77 -21 -19 -27 -21 -44 -10 -22 14 -32 10 -36 -13 -4 -31 -15 -37 -52 -27
-41 12 -99 8 -98 -6 1 -5 18 -18 38 -28 37 -18 40 -37 6 -37 -12 0 -26 -13
-35 -30 -12 -23 -22 -30 -45 -30 -48 0 -57 40 -20 88 21 26 16 55 -9 50 -10
-2 -15 -11 -13 -27 3 -20 1 -21 -18 -11 -11 6 -18 15 -15 19 9 16 -24 35 -38
22 -21 -16 -45 16 -49 64 -2 30 -7 39 -18 36 -51 -13 -60 -13 -67 4 -4 12 1
24 17 37 16 13 20 22 13 29 -18 18 -50 -7 -57 -46 -6 -31 -11 -35 -37 -35 -38
0 -46 21 -21 57 23 32 37 73 25 73 -4 0 -14 -9 -21 -21 -8 -13 -21 -19 -35
-17 -18 2 -23 11 -25 41 -2 20 1 37 6 37 6 0 4 20 -4 46 l-14 46 28 -7 c83
-20 89 -19 119 22 25 36 29 38 45 24 10 -9 18 -21 18 -29z m1826 -3 c7 -5 14
-21 17 -35 4 -21 -1 -27 -27 -38 -28 -12 -29 -13 -10 -20 33 -10 32 -86 -1
-122 -14 -15 -28 -38 -31 -51 -4 -13 -12 -23 -18 -23 -7 0 -21 -8 -32 -18 -15
-14 -26 -16 -51 -10 -29 8 -31 11 -23 32 5 13 6 26 4 29 -3 3 3 4 13 4 12 -1
19 6 21 21 4 26 3 25 36 11 33 -15 53 0 62 47 5 25 2 40 -10 53 -11 12 -16 36
-16 79 0 61 0 61 27 56 15 -3 33 -10 39 -15z m-1289 -51 c7 -1 10 -5 7 -10 -3
-5 1 -17 10 -27 9 -10 14 -25 10 -35 -5 -13 0 -16 24 -16 17 0 33 5 35 10 3 6
4 5 3 -2 -2 -7 3 -20 10 -28 11 -13 10 -20 -10 -45 -32 -40 -86 -38 -126 5
-15 16 -30 37 -34 45 -3 9 -10 13 -16 10 -5 -3 -10 -1 -10 5 0 7 7 10 15 6 20
-7 20 24 0 50 -26 35 -19 45 28 39 23 -3 47 -7 54 -7z m743 -59 c10 -17 7 -27
-14 -59 -28 -42 -25 -50 16 -50 22 0 28 -4 28 -22 0 -32 -10 -44 -42 -52 -16
-3 -28 -11 -28 -16 0 -5 12 -15 28 -22 15 -7 28 -22 30 -34 3 -18 -3 -21 -51
-23 -64 -2 -86 14 -65 48 17 28 5 36 -25 16 -47 -30 -91 20 -52 59 27 27 17
36 -40 36 -46 0 -55 3 -55 18 1 23 21 48 46 56 20 6 64 -24 64 -45 0 -5 7 -9
15 -7 9 2 21 -8 28 -21 17 -34 37 -38 37 -7 0 13 -5 28 -10 31 -15 9 -2 25 14
19 13 -5 29 22 25 42 -1 5 -1 19 0 32 1 29 36 30 51 1z m-397 -97 c19 -18 27
-21 28 -11 0 12 1 12 6 -1 4 -8 15 -21 25 -30 18 -14 18 -17 3 -54 -14 -33
-14 -43 -4 -63 14 -26 46 -38 84 -30 20 3 27 -1 31 -19 13 -52 -44 -71 -103
-34 -18 11 -33 27 -33 35 0 17 -9 19 -43 6 -37 -14 -69 11 -61 47 4 15 13 36
20 47 12 17 11 22 -9 40 -14 12 -23 33 -24 55 -3 56 27 60 80 12z m-163 -67
c0 -15 -10 -31 -24 -41 -27 -17 -25 -39 5 -47 22 -6 24 -20 7 -39 -8 -7 -13
-37 -13 -68 1 -62 8 -67 73 -55 l36 7 -27 16 c-29 18 -46 57 -31 72 17 17 54
-1 54 -25 0 -14 8 -26 19 -30 27 -8 31 -49 10 -85 -26 -42 -24 -57 11 -65 16
-4 32 -11 35 -16 10 -14 22 -11 49 15 34 30 33 48 -4 77 -33 27 -40 59 -12 59
9 1 34 3 54 6 30 5 38 2 48 -16 16 -30 5 -66 -22 -73 -16 -5 -19 -9 -11 -19 6
-7 13 -26 17 -41 10 -42 41 -32 41 13 0 29 3 34 20 32 26 -5 46 -34 33 -49 -6
-8 -6 -19 2 -33 9 -17 17 -20 44 -15 36 7 59 -10 56 -42 -1 -10 -2 -27 -1 -38
1 -18 2 -18 18 -3 13 14 14 20 4 32 -10 12 -9 14 10 9 22 -6 22 -6 6 18 -9 13
-17 30 -17 39 0 9 7 5 17 -12 17 -27 46 -33 70 -15 19 14 27 -36 13 -77 -13
-41 -6 -59 20 -51 56 18 83 -57 33 -90 l-27 -18 35 -11 c59 -19 45 -71 -30
-102 -19 -8 -39 -22 -46 -31 -22 -30 -71 -27 -92 6 -11 17 -8 21 23 36 19 9
32 21 28 26 -3 6 -10 6 -17 1 -18 -14 -76 -20 -80 -8 -3 6 -10 -1 -17 -16 -16
-34 -45 -36 -70 -6 l-17 22 -7 -22 c-4 -12 -11 -20 -15 -18 -4 3 -23 1 -43 -3
-34 -8 -37 -6 -48 19 -15 37 14 103 48 108 12 2 22 -1 22 -6 0 -5 8 -12 18
-15 9 -2 26 -8 37 -13 16 -6 18 -5 9 7 -22 28 -26 70 -8 90 9 11 22 19 28 19
6 0 18 4 26 10 12 7 6 17 -28 50 -23 23 -42 47 -42 53 0 26 -56 38 -122 28 -5
0 -8 -6 -8 -12 0 -6 9 -9 20 -6 14 3 28 -5 47 -28 21 -25 32 -31 44 -24 21 11
32 -24 20 -66 -10 -41 -37 -44 -59 -6 -23 41 -38 39 -37 -4 1 -19 0 -33 -3
-30 -2 2 -11 -2 -19 -10 -13 -13 -19 -11 -47 20 -19 19 -38 35 -43 35 -16 0
-14 70 2 76 21 8 19 41 -3 53 -20 11 -48 -1 -38 -17 9 -15 -18 -32 -42 -25
-24 6 -38 42 -28 69 5 14 4 15 -8 5 -9 -8 -12 -24 -9 -50 5 -33 2 -39 -16 -44
-36 -9 -60 66 -25 80 12 4 4 12 -28 28 -27 13 -44 29 -46 43 -2 11 -10 26 -18
32 -8 7 -14 19 -14 26 0 8 -4 14 -9 14 -19 0 -41 -32 -41 -58 l-1 -27 -17 28
c-9 15 -23 27 -31 27 -10 0 -11 -3 -2 -14 10 -12 4 -15 -30 -21 -43 -7 -59 2
-59 36 0 27 -33 33 -49 10 -8 -13 -24 -21 -42 -21 -26 0 -29 3 -29 34 0 21 -6
36 -15 40 -20 7 -19 23 4 35 14 8 27 4 61 -21 41 -31 42 -31 71 -14 16 9 33
15 38 12 5 -3 25 -8 45 -10 28 -4 38 -1 46 14 7 14 7 20 0 20 -5 0 -10 7 -10
15 0 20 -27 19 -38 -1 -7 -13 -11 -12 -26 10 -20 31 -36 34 -36 6 0 -17 -7
-20 -45 -20 -37 0 -45 3 -45 18 0 38 94 112 143 112 10 0 20 7 23 15 6 15 64
22 77 9 3 -3 1 -17 -5 -30 -16 -34 2 -52 27 -28 12 12 15 27 12 48 -6 38 6 56
58 83 47 24 75 16 75 -22z m2225 21 c12 -8 33 -12 57 -8 29 3 39 1 44 -12 3
-9 2 -22 -4 -29 -13 -15 0 -83 15 -80 7 2 7 -6 -1 -22 -7 -16 -19 -25 -33 -25
-15 0 -28 -10 -38 -30 -9 -18 -23 -30 -35 -30 -16 0 -20 7 -20 35 0 19 -4 35
-10 35 -5 0 -10 -11 -10 -24 0 -31 -16 -42 -28 -20 -11 19 11 69 29 69 18 0
19 32 3 46 -13 10 -12 14 2 30 16 18 16 20 1 37 -33 36 -12 57 28 28z m-3043
-182 c26 -26 28 -27 60 -11 31 15 34 15 46 -1 8 -10 11 -29 7 -49 -5 -27 -3
-33 12 -33 10 0 26 7 37 15 14 11 22 11 37 2 26 -16 24 -53 -5 -72 -28 -18
-25 -59 3 -51 32 10 45 -12 42 -71 -1 -16 -6 -21 -16 -17 -22 9 -18 -19 5 -34
26 -16 25 -28 -6 -57 -28 -26 -25 -46 5 -38 36 9 54 39 48 79 -9 52 23 96 66
92 38 -4 59 -34 36 -51 -9 -7 -19 -22 -23 -33 -6 -21 10 -33 49 -38 37 -5 40
-36 4 -36 -12 0 -29 -10 -39 -22 -15 -19 -20 -20 -34 -9 -19 16 -35 6 -18 -11
9 -9 7 -17 -9 -34 -24 -26 -59 -21 -59 8 0 23 -22 19 -26 -4 -1 -9 -7 -24 -13
-35 -9 -15 -10 -16 -11 -2 0 24 -39 30 -76 13 -18 -9 -41 -14 -51 -12 -26 5
-29 44 -4 58 12 6 21 17 21 25 0 18 0 18 -43 0 -41 -17 -49 -11 -53 42 -3 41
-8 48 -26 37 -16 -10 -48 -14 -70 -7 -13 3 -18 15 -18 43 0 21 4 42 10 45 6 4
5 13 -2 24 -17 28 -4 52 24 42 18 -6 23 -17 25 -47 4 -50 34 -78 75 -69 23 5
28 3 28 -12 0 -11 -5 -24 -12 -31 -18 -18 -7 -19 59 -4 46 10 66 20 78 39 16
24 16 28 0 62 -16 32 -18 34 -25 16 -4 -11 -5 -27 -2 -35 5 -12 2 -11 -11 2
-9 9 -17 21 -17 27 0 12 -13 21 -40 26 -14 3 -25 -5 -35 -26 -17 -33 -29 -36
-51 -14 -14 13 -13 18 5 41 27 34 29 69 4 59 -37 -15 -49 -15 -68 -1 -16 12
-18 19 -10 42 14 40 38 41 97 3 52 -34 118 -47 118 -24 0 20 -24 35 -40 25
-25 -16 -40 -11 -49 13 -9 22 -64 57 -90 57 -13 0 -13 6 -5 49 8 38 20 39 56
5z m2871 -24 c24 -12 28 -19 23 -42 -3 -15 -1 -28 4 -28 6 0 10 4 10 9 0 9 21
8 98 -5 37 -6 44 -11 49 -35 6 -30 37 -41 45 -17 8 24 30 -5 26 -33 -3 -19 0
-29 8 -29 23 0 26 20 8 65 -15 42 -24 50 -48 46 -5 -1 -6 5 -2 14 3 9 6 21 6
26 0 14 27 11 44 -6 8 -9 21 -14 28 -13 10 2 14 -24 16 -114 2 -108 1 -118
-15 -118 -10 0 -24 -4 -32 -9 -13 -8 -13 -12 -1 -26 12 -14 12 -18 -1 -26 -8
-5 -19 -7 -26 -4 -6 2 -17 -2 -23 -10 -10 -12 -18 -8 -47 21 -30 30 -33 38
-25 62 10 32 23 33 37 3 16 -35 35 -25 35 19 0 37 -2 40 -28 40 -16 0 -32 3
-35 7 -11 10 -108 13 -102 2 4 -5 1 -9 -5 -9 -6 0 -15 11 -21 24 -10 20 -8 28
10 47 26 28 27 49 4 50 -30 1 -49 6 -78 21 -22 12 -34 13 -57 4 -25 -9 -32 -8
-43 8 -18 24 0 55 35 62 14 3 34 9 45 13 11 5 22 6 25 2 3 -3 18 -13 33 -21z
m-1348 -42 c3 -13 11 -33 17 -46 9 -17 9 -25 0 -34 -7 -7 -12 -31 -12 -54 0
-51 -11 -60 -52 -43 -25 10 -29 16 -25 38 3 15 -1 35 -9 45 -20 28 -18 86 4
102 28 22 70 17 77 -8z m368 8 c3 -8 3 -23 0 -34 -3 -12 2 -25 14 -33 26 -19
37 -50 21 -60 -23 -15 2 -22 28 -9 22 12 27 12 34 0 6 -8 10 -21 10 -28 0 -7
14 -18 30 -23 37 -13 37 -20 1 -61 l-28 -31 -18 46 c-19 51 -48 68 -82 48 -16
-9 -15 -10 9 -11 18 0 33 -9 43 -24 24 -37 4 -62 -54 -69 -25 -3 -48 -4 -49
-2 -10 9 -5 77 6 84 14 8 16 51 5 105 -7 35 -10 37 -22 23 -14 -18 -37 -22
-44 -9 -2 4 -7 20 -11 35 -6 25 -3 29 36 47 53 23 64 24 71 6z m628 -326 c5 0
9 5 9 10 0 20 19 9 31 -19 l13 -29 24 19 c47 36 75 14 52 -42 -17 -39 -7 -47
23 -17 l24 24 17 -24 c13 -16 16 -32 11 -50 -3 -15 -9 -42 -12 -59 -3 -18 -11
-33 -18 -33 -7 0 -28 -14 -45 -30 -39 -36 -52 -29 -54 27 -1 35 1 38 26 35 29
-3 41 8 32 31 -6 17 -67 13 -73 -5 -4 -13 -37 -45 -72 -69 -13 -10 -21 -20
-18 -23 4 -4 14 0 23 9 10 10 24 14 37 10 30 -10 20 -45 -18 -66 -39 -22 -60
-9 -68 41 -3 19 -8 47 -11 63 -4 20 -2 27 10 27 24 0 30 21 7 27 -26 7 -28 41
-3 51 9 4 17 17 18 30 0 12 2 43 3 70 2 44 3 45 13 20 5 -16 14 -28 19 -28z
m-1834 10 c15 -22 17 -22 30 -5 12 17 13 16 13 -11 0 -22 3 -26 10 -14 5 8 10
10 10 3 0 -12 13 -11 44 2 13 6 21 4 24 -3 2 -7 10 -12 17 -12 7 0 16 -14 20
-31 6 -26 10 -29 33 -25 37 8 53 -5 55 -45 l2 -34 -59 3 c-50 3 -63 8 -87 33
-45 48 -85 36 -44 -13 31 -36 31 -43 3 -62 -41 -29 -65 -21 -80 26 -10 34 -19
44 -45 51 -24 7 -36 6 -55 -8 l-23 -17 26 4 c18 3 30 -1 38 -13 9 -15 7 -21
-13 -34 -33 -22 -43 -49 -16 -42 41 11 119 -35 120 -70 0 -12 13 -17 33 -14 4
0 7 -4 7 -11 0 -6 7 -19 16 -29 25 -27 11 -49 -31 -49 -33 0 -38 -4 -56 -44
-16 -36 -23 -43 -40 -39 -11 3 -26 16 -31 29 -13 27 -36 31 -45 8 -8 -22 34
-104 67 -131 22 -18 28 -32 30 -70 3 -66 2 -74 -5 -103 -5 -19 0 -33 19 -54
18 -22 22 -34 16 -47 -5 -9 -7 -19 -3 -22 3 -4 -2 -9 -11 -13 -9 -3 -16 -14
-16 -24 0 -10 -7 -17 -16 -16 -22 1 -47 -69 -38 -108 3 -16 15 -45 26 -64 18
-33 18 -35 2 -53 -17 -18 -16 -21 8 -47 26 -28 63 -143 54 -168 -3 -8 -14 -14
-24 -14 -11 0 -25 -7 -32 -15 -17 -21 -40 -19 -40 3 0 23 -19 42 -42 42 -29 0
-78 29 -78 46 0 9 -5 12 -12 8 -10 -6 -10 -4 0 8 9 11 10 18 2 23 -5 3 -10 26
-10 49 0 56 -10 106 -21 106 -5 0 -9 -19 -10 -42 0 -24 -4 -52 -8 -62 -4 -11
-3 -41 2 -67 5 -27 7 -56 3 -65 -14 -35 -35 20 -40 107 -13 189 -14 227 -8
233 7 7 42 -60 42 -81 0 -19 17 -16 24 4 13 34 17 81 6 88 -12 8 -13 82 -1 90
5 3 12 1 16 -5 14 -23 22 4 24 92 1 51 6 96 10 101 4 4 16 -2 26 -13 15 -16
17 -25 8 -39 -6 -10 -9 -54 -7 -112 3 -58 -2 -130 -11 -180 -15 -86 -9 -113
19 -90 11 9 15 9 19 -1 2 -7 7 -10 11 -7 9 8 9 31 2 92 -5 34 -3 46 5 41 8 -5
8 -1 0 13 -6 13 -7 32 -1 54 8 31 8 62 -3 167 -3 20 1 32 8 32 16 0 42 -39 47
-71 l4 -24 8 27 c6 21 1 41 -22 88 -17 34 -28 68 -25 77 3 8 0 18 -7 23 -6 4
-12 24 -12 44 0 28 -4 36 -14 32 -17 -7 -44 43 -44 81 0 32 38 73 67 73 11 0
37 15 57 33 32 27 37 36 31 60 -9 34 -32 35 -45 2 -16 -42 -37 -27 -31 23 1 6
-6 12 -17 12 -10 0 -27 7 -38 15 -10 8 -34 15 -51 15 -27 0 -34 -5 -39 -26 -9
-33 10 -45 48 -32 40 14 49 2 36 -52 -13 -54 -28 -68 -69 -65 -34 2 -49 18
-49 53 0 27 -16 28 -38 3 -13 -15 -22 -17 -39 -11 -32 13 -33 84 -2 100 20 11
21 22 2 22 -32 0 -43 49 -18 85 13 19 24 22 93 21 42 0 85 -4 94 -9 10 -5 19
-5 22 0 8 12 -35 39 -70 45 -37 7 -62 46 -29 46 8 0 24 11 37 24 21 22 77 41
79 27 0 -3 2 -16 3 -28 6 -55 43 -28 41 29 -1 21 2 43 7 50 6 10 8 10 8 -2 0
-12 3 -11 17 3 22 21 49 17 70 -13z m2308 -22 c0 -20 5 -42 11 -48 9 -9 8 -19
-2 -40 -16 -31 -64 -46 -95 -30 -16 9 -19 7 -19 -13 0 -14 7 -30 15 -37 8 -7
15 -28 15 -47 0 -30 2 -33 19 -23 24 12 32 12 50 1 19 -12 -3 -49 -36 -62 -17
-6 -23 -13 -16 -20 10 -10 6 -68 -6 -70 -63 -11 -121 5 -121 33 0 6 15 25 34
43 27 25 33 37 29 59 -5 22 -10 27 -31 24 -30 -4 -37 10 -17 36 13 17 15 17
30 2 20 -20 25 -20 25 -2 0 7 -8 16 -17 18 -13 3 -18 15 -18 38 0 35 6 41 68
66 38 15 38 16 32 56 -5 29 -3 43 6 49 27 18 44 5 44 -33z m-2993 -71 c9 -9
28 -41 42 -71 25 -52 40 -66 73 -66 12 0 14 7 9 35 -6 32 -4 36 19 45 15 6 31
8 36 4 14 -8 11 -43 -8 -76 -17 -29 -17 -30 2 -46 35 -29 36 -48 4 -73 -16
-12 -29 -28 -29 -35 0 -18 19 -18 26 -1 3 8 21 14 40 15 19 1 32 -3 29 -7 -3
-5 0 -11 6 -13 6 -2 5 -14 -5 -33 -18 -34 -5 -46 23 -21 22 20 37 20 45 0 3
-8 10 -12 16 -9 17 11 11 -11 -7 -27 -39 -32 -171 -13 -210 32 l-21 25 20 33
c11 17 17 32 13 32 -3 0 -1 9 4 19 9 15 6 22 -13 35 -21 13 -26 13 -36 1 -18
-21 -57 -19 -65 4 -3 10 -1 31 5 46 14 36 8 41 -35 28 -41 -13 -49 -2 -28 40
15 30 8 35 -16 13 -9 -8 -25 -16 -36 -18 -19 -3 -20 3 -20 72 0 70 1 75 23 78
12 2 22 8 22 14 0 6 12 -5 28 -24 15 -19 35 -42 44 -51z m3153 -15 c0 -27 4
-42 13 -42 14 0 16 -26 2 -35 -17 -11 -11 -37 11 -42 15 -4 19 -12 17 -32 -2
-21 -9 -27 -35 -29 -43 -4 -42 -18 2 -26 32 -6 35 -10 35 -41 0 -30 -3 -35
-23 -35 -27 0 -99 60 -79 67 6 3 12 21 12 41 0 26 6 41 20 50 26 16 26 32 -1
29 -13 -1 -26 6 -33 18 -6 11 -12 22 -14 25 -2 3 -9 -2 -16 -11 -6 -9 -23 -16
-36 -15 -20 1 -24 6 -22 26 1 14 11 33 20 43 28 27 85 56 107 54 17 -2 20 -9
20 -45z m-2296 -103 c25 -23 26 -37 6 -63 -21 -28 -19 -54 5 -61 20 -6 28 -35
10 -35 -5 0 -10 -7 -10 -15 0 -8 -6 -15 -14 -15 -25 0 -46 12 -46 26 0 8 -4
23 -10 34 -5 11 -14 29 -20 40 -14 28 -12 54 7 88 19 32 38 33 72 1z m126 5
c11 -2 21 -7 23 -11 17 -51 28 -58 82 -58 35 0 55 -4 58 -13 6 -20 -26 -51
-49 -45 -13 4 -19 0 -19 -11 0 -10 -8 -16 -23 -16 -31 0 -62 23 -55 41 3 8 0
23 -8 33 -7 11 -11 22 -9 26 3 5 -9 7 -26 6 -39 -1 -60 24 -39 49 7 9 20 13
29 10 9 -4 25 -9 36 -11z m770 -215 c10 -28 10 -39 -1 -54 -8 -11 -10 -23 -5
-29 6 -7 0 -30 -14 -61 -13 -28 -24 -55 -24 -61 -1 -6 -24 -32 -51 -57 -58
-54 -74 -88 -64 -137 4 -19 6 -47 5 -62 -1 -15 5 -38 13 -50 9 -12 16 -32 16
-43 0 -11 7 -28 15 -39 12 -16 12 -22 0 -46 -18 -35 -7 -84 34 -143 17 -25 31
-50 31 -55 0 -15 94 -72 118 -72 25 0 37 -16 20 -27 -22 -13 -51 -14 -59 -1
-5 8 -14 9 -29 2 -22 -10 -22 -10 6 -37 24 -24 26 -31 16 -48 -15 -23 -8 -39
16 -39 22 0 86 34 132 70 34 26 35 26 53 8 16 -17 21 -18 40 -5 45 29 82 28
123 -3 39 -28 46 -29 122 -14 12 2 22 12 22 20 0 11 -6 15 -20 11 -29 -8 -120
99 -120 142 0 18 -5 31 -12 32 -10 0 -10 2 0 6 14 6 17 84 2 99 -5 5 -11 42
-14 81 -2 40 -7 77 -11 83 -29 47 -4 101 54 119 44 13 58 35 36 57 -8 9 -15
31 -15 50 0 27 5 37 24 45 24 11 41 45 26 54 -13 8 -20 78 -9 91 6 7 26 10 54
7 43 -4 62 8 30 21 -21 8 -19 50 5 71 21 19 19 21 35 -30 3 -9 18 -21 35 -26
33 -12 42 -40 10 -34 -11 2 -22 0 -25 -6 -4 -5 3 -9 13 -9 22 0 34 -32 26 -67
-7 -27 1 -28 39 -8 15 8 25 10 22 6 -3 -5 2 -22 10 -37 19 -37 19 -68 0 -84
-12 -10 -20 -7 -45 18 -16 17 -30 37 -30 45 0 18 -27 30 -35 17 -4 -6 -2 -10
4 -10 17 0 25 -49 11 -65 -12 -15 -10 -42 5 -78 7 -16 4 -18 -21 -15 -25 3
-29 7 -26 29 2 19 -4 31 -22 43 -34 22 -44 20 -57 -8 -9 -19 -8 -29 5 -47 21
-30 20 -53 -8 -177 -15 -67 -30 -110 -45 -125 -27 -30 -28 -73 -1 -82 44 -14
110 19 110 56 0 13 -34 11 -49 -3 -10 -11 -11 -7 -5 17 4 17 12 39 17 50 6 11
12 47 13 80 1 53 32 166 34 122 0 -10 6 -20 14 -23 20 -8 28 -34 15 -50 -6 -7
-8 -18 -5 -23 4 -5 2 -12 -4 -16 -13 -8 -13 -78 1 -92 7 -7 8 -20 3 -34 -9
-26 -6 -60 5 -72 4 -4 22 -2 40 4 l32 11 -22 24 c-24 26 -26 57 -9 169 23 161
25 167 64 198 20 16 36 33 36 37 0 5 5 21 10 36 8 21 14 24 22 16 16 -16 28
-15 28 3 0 9 11 27 25 41 l26 26 22 -24 c30 -33 34 -135 5 -144 -26 -8 -35
-30 -43 -114 -4 -41 -14 -85 -22 -97 -8 -12 -13 -30 -11 -40 2 -10 -2 -23 -10
-28 -7 -6 -15 -28 -16 -50 -4 -46 -28 -67 -69 -60 -20 4 -28 2 -25 -7 3 -7 20
-14 38 -15 19 -2 37 -6 41 -11 4 -4 1 -29 -7 -57 -7 -27 -14 -76 -16 -108 -2
-59 -6 -64 -83 -122 -17 -13 -18 -16 -5 -25 30 -20 83 -12 106 17 19 24 24 26
38 14 13 -11 20 -11 28 -3 14 14 58 15 91 3 18 -7 30 -6 45 5 25 17 21 33 -23
78 -26 27 -33 44 -38 94 -4 34 -2 73 3 87 5 14 7 25 4 25 -3 0 1 7 10 15 8 8
26 15 39 15 32 0 45 16 50 67 3 23 8 47 11 52 4 6 6 36 6 68 -1 95 0 122 8
144 8 20 10 19 36 -15 27 -36 67 -48 81 -26 16 26 27 7 23 -37 -6 -55 -2 -73
18 -73 8 0 14 -7 14 -16 0 -8 5 -12 10 -9 6 3 10 2 10 -3 0 -5 -12 -9 -26 -9
-35 0 -46 -14 -50 -64 -6 -63 -33 -117 -61 -124 -33 -8 -26 -39 10 -43 15 -2
27 1 27 5 0 9 24 44 51 73 25 27 66 15 74 -21 10 -45 75 -87 75 -48 0 5 -10
23 -22 39 -20 28 -21 34 -10 93 7 34 14 80 16 102 4 55 23 90 41 75 10 -8 16
-7 23 6 6 11 11 13 16 5 7 -11 -7 -63 -30 -109 -9 -18 -9 -30 3 -52 24 -49 31
-43 38 30 4 39 10 70 14 70 4 0 6 24 4 53 -3 37 0 58 11 72 14 18 15 -14 16
-352 0 -242 -4 -373 -10 -373 -5 0 -10 -7 -10 -15 0 -8 5 -15 10 -15 6 0 10
-48 10 -125 l0 -125 -870 0 c-573 0 -870 3 -870 10 0 6 -33 10 -79 10 -44 0
-83 5 -86 10 -4 6 8 10 29 10 39 0 39 0 30 24 -7 19 -30 21 -38 4 -3 -9 -8 -8
-16 5 -15 23 -40 22 -40 -3 0 -19 -7 -20 -90 -20 -72 0 -90 -3 -90 -15 0 -11
14 -13 83 -8 69 5 85 3 96 -11 12 -15 -7 -16 -242 -16 -157 0 -257 4 -259 10
-1 5 -18 13 -37 16 -29 6 -33 5 -28 -9 6 -16 -26 -17 -403 -17 l-410 0 0 193
0 192 43 35 c26 20 42 41 40 50 -2 8 0 26 5 40 l10 25 12 -30 c16 -41 38 -64
78 -80 18 -8 40 -21 48 -30 17 -17 34 -12 34 11 0 22 -42 74 -60 74 -16 0 -70
97 -70 127 0 31 -24 83 -38 83 -8 0 -16 -9 -19 -20 -14 -53 -42 18 -44 110 -2
56 8 74 34 64 13 -5 14 -10 6 -25 -13 -26 -2 -61 19 -57 12 2 20 23 29 78 7
41 10 76 8 79 -3 2 -1 9 3 15 5 6 14 30 22 53 15 49 42 78 65 70 15 -6 20 -40
16 -104 -2 -21 4 -38 17 -49 22 -18 19 -46 -3 -38 -7 3 -16 0 -21 -7 -9 -15
-12 -169 -3 -169 3 0 12 19 18 42 7 23 19 47 26 53 16 14 37 159 30 215 -3 25
-1 52 5 60 9 13 12 12 25 -4 16 -21 21 -116 6 -116 -9 0 0 -60 14 -93 4 -10
18 -22 31 -27 18 -7 23 -18 27 -62 3 -29 5 -64 5 -78 0 -14 3 -56 5 -94 4 -53
1 -76 -11 -95 -19 -32 -52 -65 -52 -54 0 4 -5 0 -11 -10 -6 -10 -9 -20 -7 -21
1 -2 32 -6 66 -10 61 -6 65 -5 94 24 16 17 34 28 39 24 5 -3 9 1 9 8 0 10 2
10 8 1 4 -7 25 -15 47 -19 21 -3 48 -10 61 -14 12 -5 50 -8 84 -7 l62 2 -6
-34 c-6 -42 -49 -88 -88 -96 -18 -4 -34 -17 -41 -32 -10 -22 -8 -27 13 -44 25
-19 70 -26 70 -11 0 5 -11 15 -25 22 -26 14 -25 14 25 27 28 7 60 15 73 17 12
2 30 7 40 11 14 6 18 4 15 -11 -2 -15 4 -20 30 -22 18 -2 30 -8 27 -13 -4 -5
1 -9 9 -9 32 0 30 45 -2 52 -13 3 -8 10 18 26 42 27 85 23 115 -12 29 -34 78
-51 118 -40 22 7 22 19 -2 43 -10 10 -20 24 -22 30 -7 20 -82 41 -98 28 -11
-9 -12 -7 -9 8 2 11 -6 40 -19 64 -13 24 -23 50 -23 56 0 14 58 26 66 14 8
-14 43 13 55 43 6 15 22 34 35 43 13 8 24 21 24 29 0 7 12 19 28 27 15 7 30
15 34 17 4 2 6 -7 6 -20 -1 -13 -16 -36 -32 -52 -20 -18 -27 -30 -19 -33 7 -3
23 -13 35 -23 20 -16 21 -21 10 -44 -18 -40 -15 -53 16 -63 40 -14 55 -6 75
37 21 44 57 56 57 19 0 -11 4 -28 10 -38 13 -25 78 -13 119 22 17 14 45 28 63
32 43 9 58 22 58 49 0 25 -68 76 -102 76 -11 0 -33 8 -49 17 l-29 17 -40 -42
c-44 -45 -65 -54 -55 -23 9 28 -11 35 -45 14 -29 -17 -31 -17 -47 1 -12 12
-14 16 -4 14 7 -2 22 12 32 30 15 26 16 32 4 32 -8 0 -15 5 -15 11 0 5 5 7 10
4 6 -3 13 1 16 9 3 9 12 16 20 16 8 0 14 5 14 10 0 18 -30 23 -57 11 -25 -11
-25 -11 -12 6 67 85 106 101 95 39 -19 -108 -19 -106 2 -106 24 0 32 18 32 73
0 23 7 51 15 62 16 20 12 71 -7 108 -12 24 1 87 19 87 10 0 13 -9 11 -32 -2
-25 1 -33 16 -36 30 -6 42 14 22 37 -10 11 -17 28 -16 38 1 10 2 29 1 43 -2
25 -2 25 -16 -5 -15 -33 -16 -32 -21 5 -2 14 -7 54 -11 90 -5 36 -12 70 -16
77 -4 6 -3 14 2 17 12 8 41 -21 41 -40 0 -20 40 -34 63 -22 10 5 17 15 14 21
-18 48 -17 56 2 62 11 3 18 12 15 19 -3 7 7 25 21 40 l25 27 6 -30 c7 -32 30
-59 41 -47 3 3 1 17 -6 30 -8 13 -10 33 -6 46 6 20 8 21 26 4 10 -9 19 -23 19
-31 0 -7 3 -13 8 -14 4 0 15 -2 25 -4 24 -5 47 42 36 73 -5 14 -5 31 1 41 5
10 6 28 3 41 -4 16 -3 21 5 16 7 -4 12 -2 12 4 0 7 13 10 32 8 26 -2 33 -9 43
-39z m990 20 c6 -3 17 -5 25 -5 18 1 60 -41 60 -61 0 -8 5 -11 10 -8 6 3 10 2
10 -2 0 -8 29 -26 63 -39 19 -7 23 -29 7 -39 -5 -3 -10 -15 -10 -25 0 -15 9
-19 42 -22 31 -2 44 -8 46 -20 4 -21 -16 -43 -38 -43 -8 0 -16 -8 -18 -18 -3
-12 7 -22 32 -32 31 -13 36 -20 36 -48 0 -17 -4 -39 -10 -47 -7 -12 -12 -11
-32 5 -13 11 -26 25 -30 30 -5 7 -8 7 -9 0 -4 -50 -28 -81 -53 -72 -16 7 -24
77 -8 77 4 0 8 9 9 20 1 11 10 28 19 38 17 16 17 17 -2 20 -49 7 -64 13 -64
26 0 8 7 16 15 20 26 10 5 36 -30 36 -43 0 -61 21 -37 44 9 9 26 23 37 31 11
7 17 16 14 19 -3 3 -21 -4 -40 -17 -27 -18 -35 -30 -37 -60 -2 -21 0 -37 5
-36 20 3 23 -2 9 -17 -9 -8 -16 -31 -16 -49 0 -35 -21 -65 -45 -65 -19 0 -29
77 -16 113 6 16 8 33 5 38 -3 6 1 18 9 27 8 9 19 30 24 46 5 16 17 30 27 32
10 1 23 7 28 12 14 14 0 35 -18 28 -14 -5 -54 38 -54 59 0 13 15 15 35 4z
m-2696 -23 c9 -11 12 -120 3 -111 -2 2 -17 -1 -33 -7 -24 -8 -34 -7 -49 7 -10
9 -33 25 -52 34 -22 13 -34 27 -36 45 -4 35 24 46 44 17 20 -28 36 -27 62 4
24 28 44 32 61 11z m2992 -2 c5 -3 7 -9 4 -14 -3 -4 2 -10 10 -14 8 -3 17 -1
20 4 9 14 57 12 77 -4 17 -12 16 -15 -6 -39 -17 -18 -31 -25 -42 -20 -11 4
-15 2 -12 -8 3 -9 18 -12 50 -10 l46 2 -12 -36 c-7 -20 -22 -48 -33 -63 l-21
-27 3 38 c3 38 -3 45 -22 26 -20 -20 -35 1 -28 38 5 27 3 34 -7 31 -7 -3 -15
-18 -18 -34 -4 -20 -11 -29 -25 -29 -17 0 -19 6 -17 43 4 45 1 48 -30 31 -19
-10 -20 -9 -15 10 3 14 0 24 -9 28 -18 7 -18 18 2 41 15 18 61 21 85 6z m-345
-19 c10 -9 13 -23 9 -36 -8 -23 -62 -78 -79 -80 -6 -1 -22 -2 -36 -2 -19 -2
-26 -9 -30 -31 -6 -33 -27 -46 -36 -21 -4 9 -2 39 4 67 9 46 8 51 -10 56 -10
2 -18 11 -16 19 2 10 20 16 58 18 30 2 69 8 85 14 17 5 31 10 33 10 2 1 10 -6
18 -14z m-1743 -192 c4 -3 2 -12 -5 -20 -7 -9 -8 -17 -1 -24 6 -6 7 -30 1 -67
-11 -66 -4 -102 18 -102 12 0 15 -6 10 -22 -3 -13 -6 -45 -6 -71 0 -27 -4 -46
-9 -43 -9 6 -22 -16 -27 -44 -2 -8 -6 -32 -10 -52 -5 -31 -4 -38 9 -38 28 0
51 59 53 137 2 81 7 93 35 93 17 0 20 5 15 30 -3 17 -9 44 -12 61 -4 21 -10
29 -20 25 -18 -7 -19 34 -1 59 13 17 16 16 43 -20 16 -20 39 -49 52 -63 27
-30 30 -101 6 -147 -8 -16 -13 -38 -10 -49 3 -12 -5 -33 -20 -53 -18 -24 -26
-48 -28 -91 -5 -80 -50 -162 -89 -162 -9 0 -19 -5 -23 -11 -3 -6 -19 -9 -35
-7 -31 5 -39 -11 -15 -31 22 -19 8 -61 -20 -61 -12 0 -13 17 -10 100 4 82 2
100 -10 100 -8 0 -14 -7 -14 -15 0 -31 -88 -7 -123 33 -16 18 -17 26 -8 55 13
39 45 72 79 80 23 5 24 4 26 -55 2 -40 22 -57 43 -36 15 16 14 21 -12 73 -18
37 -30 53 -35 45 -8 -13 -19 28 -18 63 1 20 14 23 21 5 2 -7 8 5 12 27 5 22
14 46 22 54 9 8 12 23 8 38 -4 16 1 34 15 53 11 15 20 33 20 39 0 6 4 11 9 11
9 0 37 60 33 73 -1 4 2 7 8 7 5 0 7 7 4 15 -6 15 7 21 19 8z m826 -36 c5 -13
6 -36 3 -52 l-5 -29 30 24 c19 16 28 32 26 45 -2 13 -1 15 3 5 4 -8 12 -18 17
-22 12 -7 12 -54 1 -137 -5 -43 -4 -53 7 -49 8 3 18 27 22 56 6 37 13 52 24
52 12 0 14 -7 7 -37 -4 -21 -8 -114 -9 -208 0 -93 -5 -179 -9 -190 -4 -11 -12
-32 -18 -47 -6 -17 -18 -28 -29 -28 -25 0 -93 49 -113 81 -15 26 -19 70 -14
187 2 43 -1 65 -10 71 -24 15 -42 63 -42 112 0 58 33 147 63 171 29 23 36 22
46 -5z m277 -63 c3 -21 -3 -61 -12 -89 -15 -47 -15 -53 2 -90 30 -67 31 -82
20 -183 -3 -32 -1 -62 5 -74 6 -12 13 -56 15 -100 l3 -78 -29 0 c-53 0 -82 57
-70 139 1 7 -4 26 -10 41 -10 23 -9 33 5 53 15 23 15 28 1 56 -13 24 -14 40
-7 73 6 27 6 47 0 53 -5 5 -9 26 -9 47 0 25 -5 41 -15 44 -10 4 -11 11 -5 22
4 10 14 32 21 50 6 18 15 29 18 23 10 -16 31 3 33 31 3 41 30 28 34 -18z m650
-151 c-3 -21 -8 -63 -12 -93 -4 -30 -15 -66 -25 -79 -11 -13 -19 -37 -19 -53
0 -16 -7 -37 -16 -46 -13 -12 -15 -26 -9 -66 14 -102 14 -136 -1 -144 -12 -6
-12 -14 -3 -41 13 -38 11 -42 -20 -34 -14 3 -20 11 -17 20 3 8 1 11 -5 8 -13
-9 -8 47 5 57 6 4 5 12 -2 20 -6 8 -10 27 -8 43 2 17 4 51 5 78 1 32 7 53 21
67 14 14 20 34 21 77 1 43 9 72 30 112 16 30 29 67 29 83 0 19 5 28 16 28 13
0 15 -8 10 -37z m-2926 -1293 l0 -240 -225 0 -225 0 0 240 0 240 225 0 225 0
0 -240z m2615 223 c-4 -10 -10 -31 -13 -48 -6 -38 -39 -75 -68 -75 -39 0 -54
-86 -21 -127 5 -7 27 -13 49 -13 58 0 44 -24 -18 -30 -35 -4 -50 -10 -52 -22
-4 -23 32 -57 69 -65 16 -3 39 -16 52 -29 23 -24 57 -32 57 -13 0 6 -5 20 -12
32 -6 12 -12 52 -12 88 -1 71 -15 99 -50 99 -18 0 -16 4 12 22 49 31 64 12 70
-89 3 -55 9 -82 20 -90 37 -30 42 -18 42 112 l0 124 -40 11 c-29 8 -40 16 -40
30 0 11 7 20 15 20 22 0 28 22 16 53 l-11 27 375 0 375 0 0 -240 0 -240 -1665
0 -1665 0 0 240 0 240 1261 0 c1197 0 1261 -1 1254 -17z m1385 -223 l0 -240
-240 0 -240 0 0 240 0 240 240 0 240 0 0 -240z"/>
<path d="M3778 5286 c-20 -15 -24 -41 -8 -51 6 -4 10 -58 10 -131 l0 -124 78
0 c83 0 115 13 125 49 3 11 0 27 -7 36 -10 14 -15 13 -46 -10 -65 -48 -70 -41
-70 93 0 103 -3 121 -18 135 -22 20 -41 21 -64 3z"/>
<path d="M921 5256 c-30 -31 -33 -39 -27 -71 5 -25 15 -39 32 -47 13 -6 24
-15 24 -19 0 -4 11 -10 24 -13 32 -8 56 -33 56 -58 0 -18 -4 -19 -37 -13 -23
4 -45 16 -56 31 -24 31 -57 32 -57 2 0 -46 23 -71 75 -85 71 -18 83 -17 116
16 35 35 36 59 8 116 -15 30 -33 48 -62 61 -22 11 -40 24 -40 29 -1 20 35 16
58 -5 28 -26 45 -19 45 19 0 40 -37 71 -86 71 -32 0 -46 -7 -73 -34z"/>
<path d="M1554 5280 c-20 -8 -56 -91 -95 -218 -15 -52 -5 -75 35 -80 22 -3 26
0 26 22 0 31 25 46 77 46 36 0 41 -3 53 -35 10 -26 20 -35 37 -35 43 0 41 34
-14 175 -23 60 -57 125 -65 125 -3 0 -12 2 -20 4 -7 3 -22 1 -34 -4z"/>
<path d="M1815 5280 c-57 -22 -57 -70 0 -70 l35 0 0 -115 0 -115 40 0 40 0 0
115 0 115 40 0 c41 0 52 16 32 47 -19 29 -137 44 -187 23z"/>
<path d="M2090 5135 l0 -155 40 0 40 0 0 155 0 155 -40 0 -40 0 0 -155z"/>
<path d="M3513 5272 c-14 -11 -28 -40 -38 -82 -24 -94 -31 -122 -44 -153 -14
-35 -7 -47 25 -47 19 0 24 5 24 24 0 29 27 41 75 32 21 -4 36 -14 40 -25 9
-30 32 -44 60 -37 25 6 35 39 15 51 -5 3 -10 16 -10 28 0 13 -6 31 -14 42 -7
11 -17 38 -20 60 -8 45 -54 119 -76 122 -8 2 -25 -5 -37 -15z"/>
<path d="M1192 5268 c-7 -7 -12 -25 -12 -40 0 -26 3 -28 41 -28 l41 0 -3 -104
c-2 -58 -1 -108 3 -112 4 -3 23 -3 43 0 l35 7 0 104 0 105 35 0 c32 0 35 3 35
28 0 45 -16 52 -115 52 -57 0 -95 -4 -103 -12z"/>
<path d="M2313 5250 c-28 -34 -29 -65 -4 -106 13 -22 30 -33 53 -38 66 -12
107 -76 49 -76 -20 0 -37 9 -54 30 -34 40 -67 40 -67 1 0 -15 9 -40 21 -55 18
-23 27 -26 84 -26 60 0 65 2 94 35 17 20 31 44 31 55 0 18 -65 80 -85 80 -15
0 -45 37 -45 55 0 9 10 15 25 15 18 0 25 -5 25 -20 0 -26 31 -26 48 0 10 17 9
25 -10 50 -20 28 -26 30 -82 29 -55 0 -63 -3 -83 -29z"/>
<path d="M2618 5264 c-29 -15 -32 -22 -22 -48 4 -10 18 -16 40 -16 l34 0 0
-110 0 -110 40 0 40 0 0 110 0 110 39 0 c37 0 51 11 51 41 0 36 -167 53 -222
23z"/>
<path d="M2930 5135 l0 -145 35 0 35 0 0 145 0 145 -35 0 -35 0 0 -145z"/>
<path d="M3120 5238 c-52 -71 -38 -179 29 -227 53 -38 191 -23 191 21 0 13 -8
18 -30 18 -16 0 -30 -5 -30 -11 0 -14 -66 -5 -86 12 -18 15 -20 149 -2 167 15
15 84 16 93 2 9 -15 55 -12 55 3 0 7 -7 23 -16 35 -13 20 -24 22 -95 22 l-79
0 -30 -42z"/>
<path d="M390 4495 l0 -155 40 0 40 0 0 155 0 155 -40 0 -40 0 0 -155z"/>
<path d="M310 3975 l0 -145 30 0 30 0 0 75 c0 90 11 95 63 33 74 -89 84 -98
111 -98 l26 0 0 140 0 140 -35 0 -35 0 0 -77 0 -77 -36 35 c-20 18 -49 53 -65
77 -24 33 -36 42 -59 42 l-30 0 0 -145z"/>
<path d="M320 3420 l0 -160 84 0 c62 0 87 4 96 15 7 8 18 15 25 15 24 0 45 48
45 104 0 66 -13 103 -48 137 -42 40 -66 49 -136 49 l-66 0 0 -160z m145 96
c16 -12 20 -29 23 -95 5 -94 -4 -111 -54 -111 l-34 0 0 110 c0 108 0 110 23
110 13 0 32 -6 42 -14z"/>
<path d="M390 2880 l0 -150 40 0 40 0 0 150 0 150 -40 0 -40 0 0 -150z"/>
<path d="M403 2450 c-3 -17 -10 -33 -14 -36 -5 -3 -9 -13 -9 -23 0 -10 -9 -47
-20 -81 -11 -34 -20 -78 -20 -96 0 -31 3 -34 29 -34 27 0 30 3 33 38 3 35 5
37 40 40 34 3 37 0 54 -37 14 -31 24 -41 41 -41 13 0 26 6 29 14 6 15 -47 180
-77 237 -29 57 -76 67 -86 19z"/>
<path d="M320 1765 l0 -155 35 0 35 0 0 81 c0 60 3 80 13 77 6 -3 39 -39 71
-81 90 -117 96 -112 96 78 l0 155 -35 0 -35 0 0 -77 0 -78 -78 78 c-42 42 -83
77 -90 77 -9 0 -12 -39 -12 -155z"/>
<path d="M4390 4520 l0 -140 40 0 40 0 0 140 0 140 -40 0 -40 0 0 -140z"/>
<path d="M4300 4185 l0 -135 30 0 30 0 0 65 c0 36 3 65 8 65 4 0 37 -29 74
-65 38 -36 77 -65 88 -65 19 0 20 6 20 135 l0 135 -30 0 -30 0 0 -63 c0 -35
-3 -67 -7 -70 -6 -7 -80 67 -110 111 -10 14 -26 22 -44 22 l-29 0 0 -135z"/>
<path d="M4374 3969 c-32 -16 -53 -60 -43 -88 11 -27 28 -43 80 -71 20 -10 39
-28 42 -40 5 -18 1 -20 -38 -20 -26 0 -47 6 -55 15 -22 26 -43 19 -36 -12 10
-39 33 -53 88 -53 53 0 102 20 112 45 8 23 8 75 -1 75 -5 0 -17 13 -27 29 -16
23 -30 30 -68 35 -49 7 -61 23 -34 45 10 8 24 7 57 -4 64 -23 87 -9 50 31 -21
23 -92 30 -127 13z"/>
<path d="M4350 3617 c-14 -7 -26 -20 -28 -30 -3 -13 4 -17 32 -17 l36 0 0
-105 0 -105 45 0 45 0 0 105 0 105 35 0 c42 0 47 20 10 44 -30 20 -138 22
-175 3z"/>
<path d="M4380 3165 l0 -145 40 0 40 0 0 145 0 145 -40 0 -40 0 0 -145z"/>
<path d="M4332 2954 c-12 -8 -22 -24 -22 -35 0 -15 7 -19 35 -19 l35 0 0 -105
0 -105 40 0 40 0 0 105 0 105 35 0 c28 0 35 4 35 19 0 10 -11 26 -25 35 -33
21 -142 22 -173 0z"/>
<path d="M4300 2523 l0 -96 45 -44 c46 -44 90 -56 118 -33 78 63 72 48 75 164
l4 106 -31 0 -31 0 0 -85 c0 -101 -17 -145 -55 -145 -14 0 -32 11 -44 26 -18
23 -21 41 -21 115 l0 89 -30 0 -30 0 0 -97z"/>
<path d="M4322 2234 c-36 -25 -28 -44 18 -44 l40 0 0 -99 c0 -107 8 -125 52
-119 22 3 23 7 26 111 l3 107 44 0 c51 0 55 7 22 38 -20 19 -35 22 -103 22
-56 0 -86 -5 -102 -16z"/>
<path d="M4330 1760 l0 -150 100 0 100 0 0 30 0 30 -65 0 -65 0 0 35 0 35 50
0 c47 0 50 2 50 25 0 23 -3 25 -50 25 -49 0 -50 1 -50 30 0 30 0 30 60 30 60
0 60 0 60 30 l0 30 -95 0 -95 0 0 -150z"/>
<path d="M2354 2434 c-4 -15 -2 -49 5 -76 15 -68 14 -98 -6 -120 -16 -18 -15
-20 18 -48 19 -16 37 -29 41 -30 11 0 20 35 33 127 6 44 3 61 -16 100 -35 73
-64 91 -75 47z"/>
<path d="M932 1333 c-51 -25 -58 -51 -54 -225 l3 -158 35 0 34 0 0 105 0 105
34 0 c54 0 59 -56 8 -80 l-27 -12 35 -29 c36 -30 55 -36 65 -19 9 15 61 12 74
-4 6 -7 9 -20 5 -29 -8 -22 30 -41 56 -27 18 10 20 21 20 102 0 70 4 96 16
109 22 25 9 39 -35 39 -48 0 -67 -17 -45 -41 23 -26 14 -61 -19 -72 -33 -11
-46 -2 -52 35 -4 19 1 27 21 37 21 9 24 14 14 26 -9 11 -35 15 -96 15 -82 0
-84 1 -84 24 0 34 26 51 77 50 23 0 43 2 43 5 0 12 -62 55 -81 56 -10 1 -31
-4 -47 -12z"/>
<path d="M1795 1320 c-10 -11 -16 -21 -14 -23 2 -1 13 -7 24 -13 24 -13 46
-54 38 -68 -4 -5 -9 -3 -12 5 -12 31 -38 58 -65 69 -24 9 -31 7 -41 -7 -15
-20 -11 -33 9 -33 8 0 19 -7 26 -15 11 -13 3 -15 -58 -15 -51 0 -75 -4 -86
-16 -18 -18 -21 -40 -5 -49 6 -4 9 -26 8 -49 -2 -25 3 -51 12 -64 17 -23 65
-45 80 -36 6 3 21 -1 34 -10 13 -9 42 -16 64 -16 31 0 44 -6 60 -26 11 -14 25
-23 31 -19 6 4 10 52 10 121 l0 114 74 0 c41 0 78 -4 81 -10 6 -10 -6 -14 -36
-11 -37 4 -68 -18 -74 -53 -13 -65 15 -106 71 -106 21 0 43 -8 56 -20 12 -11
25 -20 30 -20 13 0 30 41 24 57 -4 9 1 27 9 40 l16 24 22 -33 c23 -33 89 -72
110 -65 7 2 17 -3 23 -12 10 -13 14 -13 29 -1 13 11 16 30 14 106 -3 112 9
139 48 103 26 -25 31 -64 8 -73 -28 -10 -18 -63 21 -106 20 -22 40 -40 45 -40
12 0 11 37 -1 45 -5 3 -10 15 -10 26 0 14 7 19 25 19 23 0 88 -30 109 -51 6
-5 19 -9 29 -9 11 0 26 -8 33 -17 22 -28 34 1 34 82 0 39 5 88 10 110 6 26 5
44 -2 52 -8 11 -93 13 -414 10 -404 -3 -404 -3 -404 18 0 12 -9 40 -20 63 -23
47 -46 54 -75 22z"/>
<path d="M1391 1296 c-16 -19 14 -56 39 -49 10 3 20 -2 23 -11 4 -9 1 -17 -6
-17 -7 -1 -16 -2 -22 -4 -5 -1 -41 -3 -78 -3 -52 -2 -69 -6 -74 -18 -4 -10 0
-20 10 -26 24 -13 21 -23 -8 -36 -25 -12 -33 -44 -17 -68 9 -14 52 -25 52 -14
0 13 72 3 81 -12 7 -10 13 -10 36 3 36 21 53 14 53 -21 0 -16 7 -36 16 -44 33
-34 40 -19 48 104 2 41 8 87 11 103 6 21 4 27 -9 27 -9 0 -26 12 -39 26 -61
73 -92 89 -116 60z"/>
<path d="M2946 1209 c-27 -22 -13 -38 37 -42 49 -4 56 -13 11 -15 -62 -2 -99
-52 -81 -107 8 -27 57 -85 71 -85 3 0 16 -11 30 -25 28 -28 47 -25 67 11 11
22 11 29 -4 52 -14 24 -22 27 -62 24 -34 -2 -47 1 -51 13 -8 20 13 45 37 45
11 0 19 4 19 9 0 5 9 7 20 4 26 -7 50 13 50 42 0 34 11 56 24 49 6 -4 4 1 -5
11 -10 10 -40 20 -79 24 -52 6 -66 5 -84 -10z"/>
<path d="M3460 1216 c-21 -21 -10 -36 25 -36 47 0 48 0 63 -12 22 -19 7 -33
-48 -43 -64 -12 -81 -32 -57 -69 18 -27 52 -35 59 -15 7 21 45 -1 58 -32 12
-29 37 -49 59 -49 13 0 16 260 4 261 -60 6 -155 3 -163 -5z"/>
<path d="M3682 1215 c-10 -11 -9 -21 5 -50 16 -34 16 -36 -5 -58 -28 -29 -28
-55 0 -78 25 -23 71 -25 92 -4 8 8 18 15 22 15 11 0 33 -33 34 -50 0 -16 105
-82 114 -72 14 13 4 33 -26 54 -33 23 -33 24 -32 105 0 58 5 88 17 107 16 24
16 26 -1 34 -9 5 -60 10 -112 11 -72 1 -98 -3 -108 -14z"/>
<path d="M70 390 l0 -290 2350 0 2350 0 0 290 0 290 -2350 0 -2350 0 0 -290z
m4590 0 l0 -200 -2235 0 -2235 0 0 200 0 200 2235 0 2235 0 0 -200z"/>
<path d="M3965 538 c-44 -25 -47 -58 -5 -58 l30 0 0 -105 0 -105 40 0 40 0 0
105 0 105 30 0 c38 0 39 21 4 49 -30 24 -105 28 -139 9z"/>
<path d="M3263 533 c-22 -4 -23 -8 -23 -134 l0 -129 30 0 c30 0 30 0 30 60 0
42 4 60 13 60 17 -1 47 -25 47 -38 0 -20 62 -82 81 -82 25 0 24 14 -2 50 -16
21 -20 36 -15 59 3 17 9 44 12 61 5 25 1 35 -29 65 -30 30 -41 35 -78 34 -24
-1 -54 -4 -66 -6z"/>
<path d="M3557 514 c-16 -16 -25 -34 -23 -50 4 -32 55 -76 83 -71 28 5 47 -16
38 -43 -8 -24 -18 -25 -35 -5 -14 17 -66 20 -75 5 -18 -28 48 -80 101 -80 43
1 101 81 90 125 -6 22 -78 65 -111 65 -21 0 -19 13 5 28 13 8 20 9 20 1 0 -14
52 -7 57 7 8 24 -28 44 -76 44 -38 0 -54 -5 -74 -26z"/>
<path d="M3790 405 l0 -135 35 0 35 0 0 135 0 135 -35 0 -35 0 0 -135z"/>
<path d="M3020 400 l0 -130 95 0 c88 0 95 1 95 20 0 18 -7 20 -55 20 -52 0
-55 1 -55 25 0 22 4 25 35 25 32 0 35 2 35 30 0 28 -3 30 -35 30 -32 0 -35 2
-35 30 0 30 1 30 55 30 52 0 55 1 55 25 0 25 0 25 -95 25 l-95 0 0 -130z"/>
<path d="M4180 512 c0 -11 8 -26 18 -35 10 -10 29 -40 42 -67 13 -28 27 -50
32 -50 4 0 8 -20 8 -45 0 -43 1 -45 30 -45 28 0 30 2 30 41 0 31 10 56 46 110
50 77 53 102 13 107 -20 2 -32 -4 -48 -25 -44 -58 -40 -58 -83 -14 -42 45 -88
56 -88 23z"/>
<path d="M2370 395 l0 -125 60 0 c59 0 120 20 120 40 0 5 9 12 20 15 17 5 20
15 20 66 0 53 -3 63 -27 84 -34 30 -82 45 -145 45 l-48 0 0 -125z"/>
<path d="M2630 395 l0 -125 35 0 35 0 0 125 0 125 -35 0 -35 0 0 -125z"/>
<path d="M2750 488 c0 -18 16 -67 36 -108 20 -41 40 -82 44 -90 4 -8 16 -16
26 -18 15 -2 26 11 46 50 31 62 58 132 65 171 5 24 2 27 -21 27 -18 0 -26 -6
-27 -17 -1 -25 -42 -96 -54 -95 -10 0 -51 64 -62 95 -3 10 -15 17 -29 17 -20
0 -24 -5 -24 -32z"/>
<path d="M1340 490 c-9 -17 -4 -27 35 -65 42 -43 45 -49 45 -100 l0 -55 35 0
35 0 0 54 c0 45 5 60 35 99 37 49 44 74 21 83 -19 7 -64 -22 -71 -47 -8 -24
-43 -25 -52 -1 -8 22 -42 52 -59 52 -7 0 -18 -9 -24 -20z"/>
<path d="M1800 390 l0 -120 35 0 35 0 0 120 0 120 -35 0 -35 0 0 -120z"/>
<path d="M1920 390 l0 -120 35 0 35 0 0 67 0 67 50 -49 c28 -27 50 -57 50 -67
0 -13 8 -18 30 -18 l30 0 0 120 0 120 -35 0 -35 0 0 -56 0 -56 -64 56 c-93 82
-96 80 -96 -64z"/>
<path d="M400 428 c0 -88 26 -153 65 -168 35 -13 101 -13 127 1 32 17 48 71
48 159 l0 80 -35 0 -34 0 -3 -87 -3 -88 -40 0 -40 0 -3 88 -3 87 -39 0 -40 0
0 -72z"/>
<path d="M690 380 l0 -120 35 0 35 0 0 60 c0 46 3 60 15 60 8 0 33 -27 57 -60
30 -44 48 -60 65 -60 23 0 23 1 23 120 l0 120 -35 0 c-35 0 -35 0 -35 -45 0
-25 -4 -45 -8 -45 -4 0 -28 20 -52 45 -31 32 -52 45 -72 45 l-28 0 0 -120z"/>
<path d="M970 380 l0 -120 35 0 35 0 0 120 0 120 -35 0 -35 0 0 -120z"/>
<path d="M1130 487 c-14 -7 -26 -20 -28 -30 -3 -13 4 -17 27 -17 l31 0 0 -90
0 -90 35 0 35 0 0 90 c0 89 0 90 25 90 31 0 33 23 3 44 -27 19 -93 21 -128 3z"/>
</g>
</svg>
